<svg width="40" height="40" viewBox="0 0 40 40" fill="none" xmlns="http://www.w3.org/2000/svg">
<rect width="40" height="40" rx="4" fill="#252D4A"/>
<path fill-rule="evenodd" clip-rule="evenodd" d="M27.2803 12.7197C27.5732 13.0126 27.5732 13.4874 27.2803 13.7803L13.7803 27.2803C13.4874 27.5732 13.0126 27.5732 12.7197 27.2803C12.4268 26.9874 12.4268 26.5126 12.7197 26.2197L26.2197 12.7197C26.5126 12.4268 26.9874 12.4268 27.2803 12.7197Z" fill="#8381D9"/>
<path fill-rule="evenodd" clip-rule="evenodd" d="M12.7197 12.7197C13.0126 12.4268 13.4874 12.4268 13.7803 12.7197L27.2803 26.2197C27.5732 26.5126 27.5732 26.9874 27.2803 27.2803C26.9874 27.5732 26.5126 27.5732 26.2197 27.2803L12.7197 13.7803C12.4268 13.4874 12.4268 13.0126 12.7197 12.7197Z" fill="#8381D9"/>
</svg>
